<?xml version="1.0" standalone="no"?><!DOCTYPE svg PUBLIC "-//W3C//DTD SVG 1.1//EN" "http://www.w3.org/Graphics/SVG/1.1/DTD/svg11.dtd"><svg t="1670936376707" class="icon" viewBox="0 0 1024 1024" version="1.1" xmlns="http://www.w3.org/2000/svg" p-id="46967" xmlns:xlink="http://www.w3.org/1999/xlink" width="200" height="200"><path d="M170.666667 308.352V810.666667h426.666666v85.333333H128a42.666667 42.666667 0 0 1-42.666667-42.666667V170.666667a42.666667 42.666667 0 0 1 42.666667-42.666667h768a42.666667 42.666667 0 0 1 42.666667 42.666667v384h-85.333334V308.352l-341.333333 303.402667-341.333333-303.402667zM192.213333 213.333333L512 497.578667 831.786667 213.333333H192.213333z" p-id="46968"></path><path d="M896 746.666667L832 640 768 746.666667l-128 21.333333 106.666667 85.333333-42.666667 128 128-70.826666 128 70.826666-42.666667-106.666666L1024 768l-128-21.333333z" p-id="46969"></path></svg>